<?xml version="1.0" encoding="UTF-8"?>
<svg xmlns="http://www.w3.org/2000/svg" xmlns:xlink="http://www.w3.org/1999/xlink" width="40px" height="53px" viewBox="0 0 40 53" version="1.1">
<g id="surface1">
<path style=" stroke:none;fill-rule:nonzero;fill:rgb(56.470588%,93.333333%,56.470588%);fill-opacity:1;" d="M 39.78125 40.183594 C 39.113281 43.019531 36.949219 44.617188 34.042969 45.152344 C 31.488281 45.621094 29.363281 45.734375 27.324219 44.097656 C 24.832031 42.015625 24.800781 38.570312 27.042969 36.394531 C 28.8125 34.71875 31.300781 34.378906 35.042969 33.726562 C 35.667969 33.613281 36.207031 33.464844 36.667969 32.960938 C 37.332031 32.214844 37.125 32.535156 37.125 16.066406 C 37.125 14.90625 36.550781 14.585938 35.355469 14.792969 C 34.5 14.9375 16.011719 18.375 16.011719 18.375 C 14.949219 18.601562 14.613281 18.914062 14.613281 20.101562 C 14.613281 44.398438 14.730469 43.28125 14.355469 44.894531 C 13.917969 46.777344 12.75 48.195312 11.207031 48.984375 C 9.457031 49.945312 6.292969 50.371094 4.605469 50.058594 C 0.105469 49.222656 -1.480469 44.054688 1.574219 41.09375 C 3.34375 39.417969 5.832031 39.078125 9.574219 38.425781 C 10.199219 38.3125 10.738281 38.167969 11.199219 37.660156 C 12.25 36.46875 11.386719 11.097656 11.738281 9.6875 C 11.824219 9.152344 12.050781 8.695312 12.480469 8.355469 C 12.917969 7.992188 13.707031 7.785156 13.875 7.785156 C 35.125 3.832031 37.71875 3.324219 38.082031 3.324219 C 39.28125 3.238281 39.96875 3.945312 39.96875 5.144531 C 39.988281 40.804688 40.082031 38.890625 39.78125 40.183594 Z M 39.78125 40.183594 "/>
</g>
</svg>
